<svg xmlns="http://www.w3.org/2000/svg" viewBox="0 0 1000 1100" width="1000" height="1100">
<defs>
    <linearGradient id="beam0" x1="0" y1="0" x2="0" y2="1">
      <stop offset="0" stop-color="#ffb489" stop-opacity=".95"/>
      <stop offset=".45" stop-color="#ff5a1f" stop-opacity=".38"/>
      <stop offset="1" stop-color="#ff5a1f" stop-opacity="0"/>
    </linearGradient>
    <linearGradient id="beam1" x1="0" y1="0" x2="0" y2="1">
      <stop offset="0" stop-color="#ffb489" stop-opacity=".95"/>
      <stop offset=".45" stop-color="#ff5a1f" stop-opacity=".38"/>
      <stop offset="1" stop-color="#ff5a1f" stop-opacity="0"/>
    </linearGradient>
  <radialGradient id="hot" cx="0.534" cy="0.250" r=".75">
    <stop offset="0" stop-color="#ff8f52" stop-opacity=".55"/>
    <stop offset=".45" stop-color="#7a2a10" stop-opacity=".22"/>
    <stop offset="1" stop-color="#0a0a0b" stop-opacity="0"/>
  </radialGradient>
  <linearGradient id="floor" x1="0" y1="0" x2="0" y2="1">
    <stop offset="0" stop-color="#0a0a0b" stop-opacity="0"/>
    <stop offset="1" stop-color="#000" stop-opacity=".92"/>
  </linearGradient>
  <filter id="smoke" x="-10%" y="-10%" width="120%" height="120%">
    <feTurbulence type="fractalNoise" baseFrequency="0.0022 0.006" numOctaves="4" seed="435"/>
    <feColorMatrix type="matrix" values="0 0 0 0 .55  0 0 0 0 .26  0 0 0 0 .12  0 0 0 .55 0"/>
  </filter>
  <filter id="grain"><feTurbulence type="fractalNoise" baseFrequency=".9" numOctaves="2"/>
    <feColorMatrix type="saturate" values="0"/></filter>
</defs>
<rect width="1000" height="1100" fill="#0a0a0b"/>
<rect width="1000" height="1100" fill="url(#hot)"/>
<rect width="1000" height="1100" filter="url(#smoke)" opacity="0.42"/>
<g transform="rotate(-2.9 335 0)">
      <rect x="300" y="-275" width="72" height="1760"
            fill="url(#beam0)" opacity="0.34"/></g><g transform="rotate(6.3 435 0)">
      <rect x="387" y="-275" width="96" height="1760"
            fill="url(#beam1)" opacity="0.39"/></g>
<circle cx="191" cy="983" r="4.2" fill="#ff7a42" opacity="0.19"/><circle cx="229" cy="595" r="21.9" fill="#ff7a42" opacity="0.21"/><circle cx="8" cy="1092" r="5.2" fill="#ff7a42" opacity="0.22"/><circle cx="414" cy="520" r="8.1" fill="#ff7a42" opacity="0.16"/><circle cx="161" cy="818" r="13.6" fill="#ff7a42" opacity="0.23"/><circle cx="348" cy="487" r="22.6" fill="#ff7a42" opacity="0.07"/><circle cx="600" cy="408" r="22.8" fill="#ff7a42" opacity="0.16"/><circle cx="494" cy="590" r="10.0" fill="#ff7a42" opacity="0.08"/><circle cx="232" cy="470" r="17.8" fill="#ff7a42" opacity="0.18"/><circle cx="742" cy="940" r="11.1" fill="#ff7a42" opacity="0.12"/><circle cx="688" cy="1103" r="6.6" fill="#ff7a42" opacity="0.08"/><circle cx="73" cy="628" r="21.0" fill="#ff7a42" opacity="0.15"/><circle cx="392" cy="1084" r="24.8" fill="#ff7a42" opacity="0.06"/><circle cx="543" cy="593" r="18.9" fill="#ff7a42" opacity="0.11"/><circle cx="945" cy="949" r="25.9" fill="#ff7a42" opacity="0.17"/><circle cx="568" cy="1148" r="16.3" fill="#ff7a42" opacity="0.21"/><circle cx="825" cy="728" r="10.1" fill="#ff7a42" opacity="0.12"/><circle cx="532" cy="1083" r="13.0" fill="#ff7a42" opacity="0.09"/><circle cx="392" cy="821" r="16.2" fill="#ff7a42" opacity="0.13"/><circle cx="699" cy="683" r="14.6" fill="#ff7a42" opacity="0.16"/><circle cx="217" cy="597" r="22.1" fill="#ff7a42" opacity="0.16"/><circle cx="445" cy="929" r="24.5" fill="#ff7a42" opacity="0.18"/><circle cx="710" cy="900" r="16.9" fill="#ff7a42" opacity="0.23"/><circle cx="798" cy="448" r="8.9" fill="#ff7a42" opacity="0.16"/><circle cx="73" cy="442" r="24.4" fill="#ff7a42" opacity="0.23"/><circle cx="291" cy="974" r="12.5" fill="#ff7a42" opacity="0.25"/>
<rect width="1000" height="1100" fill="url(#floor)"/>
<rect width="1000" height="1100" filter="url(#grain)" opacity=".07"/>
</svg>