<svg xmlns="http://www.w3.org/2000/svg" viewBox="0 0 600 800" width="600" height="800">
<defs>
    <linearGradient id="beam0" x1="0" y1="0" x2="0" y2="1">
      <stop offset="0" stop-color="#ffb489" stop-opacity=".95"/>
      <stop offset=".45" stop-color="#ff5a1f" stop-opacity=".38"/>
      <stop offset="1" stop-color="#ff5a1f" stop-opacity="0"/>
    </linearGradient>
    <linearGradient id="beam1" x1="0" y1="0" x2="0" y2="1">
      <stop offset="0" stop-color="#ffb489" stop-opacity=".95"/>
      <stop offset=".45" stop-color="#ff5a1f" stop-opacity=".38"/>
      <stop offset="1" stop-color="#ff5a1f" stop-opacity="0"/>
    </linearGradient>
  <radialGradient id="hot" cx="0.272" cy="0.450" r=".75">
    <stop offset="0" stop-color="#ff8f52" stop-opacity=".55"/>
    <stop offset=".45" stop-color="#7a2a10" stop-opacity=".22"/>
    <stop offset="1" stop-color="#0a0a0b" stop-opacity="0"/>
  </radialGradient>
  <linearGradient id="floor" x1="0" y1="0" x2="0" y2="1">
    <stop offset="0" stop-color="#0a0a0b" stop-opacity="0"/>
    <stop offset="1" stop-color="#000" stop-opacity=".92"/>
  </linearGradient>
  <filter id="smoke" x="-10%" y="-10%" width="120%" height="120%">
    <feTurbulence type="fractalNoise" baseFrequency="0.0022 0.006" numOctaves="4" seed="699"/>
    <feColorMatrix type="matrix" values="0 0 0 0 .55  0 0 0 0 .26  0 0 0 0 .12  0 0 0 .55 0"/>
  </filter>
  <filter id="grain"><feTurbulence type="fractalNoise" baseFrequency=".9" numOctaves="2"/>
    <feColorMatrix type="saturate" values="0"/></filter>
</defs>
<rect width="600" height="800" fill="#0a0a0b"/>
<rect width="600" height="800" fill="url(#hot)"/>
<rect width="600" height="800" filter="url(#smoke)" opacity="0.72"/>
<g transform="rotate(21.5 503 0)">
      <rect x="480" y="-200" width="44" height="1280"
            fill="url(#beam0)" opacity="0.16"/></g><g transform="rotate(11.6 423 0)">
      <rect x="399" y="-200" width="47" height="1280"
            fill="url(#beam1)" opacity="0.24"/></g>
<circle cx="195" cy="555" r="7.8" fill="#ff7a42" opacity="0.12"/><circle cx="266" cy="341" r="11.4" fill="#ff7a42" opacity="0.06"/><circle cx="460" cy="397" r="9.5" fill="#ff7a42" opacity="0.15"/><circle cx="521" cy="475" r="7.9" fill="#ff7a42" opacity="0.24"/><circle cx="150" cy="779" r="4.5" fill="#ff7a42" opacity="0.13"/><circle cx="338" cy="318" r="10.3" fill="#ff7a42" opacity="0.19"/><circle cx="288" cy="799" r="6.0" fill="#ff7a42" opacity="0.11"/><circle cx="536" cy="455" r="3.7" fill="#ff7a42" opacity="0.19"/><circle cx="266" cy="438" r="15.1" fill="#ff7a42" opacity="0.19"/><circle cx="317" cy="599" r="11.7" fill="#ff7a42" opacity="0.12"/><circle cx="173" cy="284" r="15.1" fill="#ff7a42" opacity="0.06"/><circle cx="143" cy="310" r="12.6" fill="#ff7a42" opacity="0.19"/><circle cx="314" cy="724" r="15.2" fill="#ff7a42" opacity="0.08"/><circle cx="594" cy="314" r="12.0" fill="#ff7a42" opacity="0.07"/><circle cx="314" cy="616" r="13.2" fill="#ff7a42" opacity="0.08"/><circle cx="220" cy="484" r="7.6" fill="#ff7a42" opacity="0.23"/><circle cx="215" cy="480" r="7.9" fill="#ff7a42" opacity="0.06"/><circle cx="182" cy="669" r="3.2" fill="#ff7a42" opacity="0.08"/><circle cx="555" cy="673" r="9.6" fill="#ff7a42" opacity="0.20"/><circle cx="67" cy="431" r="8.6" fill="#ff7a42" opacity="0.20"/><circle cx="234" cy="725" r="8.1" fill="#ff7a42" opacity="0.21"/><circle cx="509" cy="498" r="9.4" fill="#ff7a42" opacity="0.07"/><circle cx="574" cy="398" r="4.3" fill="#ff7a42" opacity="0.12"/><circle cx="586" cy="334" r="14.0" fill="#ff7a42" opacity="0.09"/><circle cx="560" cy="761" r="13.2" fill="#ff7a42" opacity="0.12"/><circle cx="204" cy="781" r="5.9" fill="#ff7a42" opacity="0.19"/>
<rect width="600" height="800" fill="url(#floor)"/>
<rect width="600" height="800" filter="url(#grain)" opacity=".07"/>
</svg>